<svg width="63" height="11" viewBox="0 0 63 11" fill="none" xmlns="http://www.w3.org/2000/svg">
<path d="M7.47489 8.98273C7.47489 8.44247 7.91249 8.00451 8.45229 8.00451C8.99209 8.00451 9.42969 8.44247 9.42969 8.98273C9.42969 9.52298 8.99209 9.96094 8.45229 9.96094C7.91249 9.96094 7.47489 9.52298 7.47489 8.98273Z" fill="#3EB489"/>
<path d="M2.07394 9.59443C1.69224 9.97645 1.07339 9.97645 0.691688 9.59443C0.309991 9.21242 0.309991 8.59305 0.691688 8.21103L7.70533 1.19154C8.08702 0.809527 8.70588 0.809526 9.08758 1.19154C9.46927 1.57356 9.46927 2.19293 9.08757 2.57494L2.07394 9.59443Z" fill="#FDDB9A"/>
<path d="M0.308878 8.98175C0.308878 8.4415 0.746473 8.00354 1.28627 8.00354C1.82608 8.00354 2.26367 8.4415 2.26367 8.98175C2.26367 9.522 1.82608 9.95996 1.28627 9.95996C0.746473 9.95996 0.308878 9.522 0.308878 8.98175Z" fill="#F9A602"/>
<path d="M5.7087 9.60127C5.327 9.98328 4.70815 9.98328 4.32645 9.60127C3.94476 9.21925 3.94476 8.59988 4.32645 8.21787L7.72332 4.81816C8.10502 4.43615 8.72387 4.43615 9.10557 4.81816C9.48727 5.20018 9.48727 5.81955 9.10557 6.20156L5.7087 9.60127Z" fill="#A1BAD1"/>
<path d="M3.94364 8.98858C3.94364 8.44833 4.38124 8.01037 4.92104 8.01037C5.46084 8.01037 5.89844 8.44833 5.89844 8.98858C5.89844 9.52884 5.46084 9.9668 4.92104 9.9668C4.38124 9.9668 3.94364 9.52884 3.94364 8.98858Z" fill="#13528B"/>
<path d="M13.8582 0.96077V10.2865H12.2266V0.96077H13.8582Z" fill="black" fill-opacity="0.87"/>
<path d="M17.2493 10.2865H15.6942V3.9843H17.1346L17.2621 4.80078C17.6572 4.1629 18.422 3.79294 19.2761 3.79294C20.8567 3.79294 21.6725 4.77526 21.6725 6.40823V10.2865H20.1174V6.77819C20.1174 5.71932 19.5948 5.20902 18.7917 5.20902C17.8357 5.20902 17.2493 5.87241 17.2493 6.89301V10.2865Z" fill="black" fill-opacity="0.87"/>
<path d="M22.5758 3.9843H23.4809V3.21885C23.4809 1.50934 24.3476 0.794922 25.6223 0.794922C25.8645 0.794922 26.1577 0.807679 26.4254 0.858709V2.18549H25.8773C25.1762 2.18549 25.0232 2.59373 25.0232 3.21885V3.9843H27.5344V0.794922H29.0895V10.2865H27.5344V5.28557H25.0232V10.2865H23.4809V5.28557H22.5758V3.9843Z" fill="black" fill-opacity="0.87"/>
<path d="M34.9893 3.9843H36.5444V10.2865H35.104L34.9893 9.44451C34.6069 10.0441 33.7911 10.4524 32.9498 10.4524C31.4967 10.4524 30.6426 9.47003 30.6426 7.92637V3.9843H32.1977V7.3778C32.1977 8.577 32.6694 9.06179 33.5362 9.06179C34.5177 9.06179 34.9893 8.4877 34.9893 7.28849V3.9843Z" fill="black" fill-opacity="0.87"/>
<path d="M37.6565 7.12265C37.6565 5.17075 38.9439 3.79294 40.805 3.79294C42.5258 3.79294 43.6985 4.74975 43.8642 6.26789H42.3091C42.1306 5.55347 41.608 5.18351 40.8687 5.18351C39.8744 5.18351 39.2116 5.9362 39.2116 7.12265C39.2116 8.3091 39.8235 9.04903 40.8177 9.04903C41.5953 9.04903 42.1434 8.66631 42.3091 7.9774H43.877C43.6858 9.44451 42.4621 10.4524 40.8177 10.4524C38.9057 10.4524 37.6565 9.12558 37.6565 7.12265Z" fill="black" fill-opacity="0.87"/>
<path d="M47.8515 10.4524C45.9777 10.4524 44.6648 9.0873 44.6648 7.1354C44.6648 5.15799 45.9522 3.79294 47.8005 3.79294C49.687 3.79294 50.8853 5.05593 50.8853 7.02059V7.49261L46.1434 7.50537C46.2581 8.61527 46.8445 9.17661 47.877 9.17661C48.731 9.17661 49.2919 8.84491 49.4703 8.24531H50.9107C50.6431 9.62312 49.4958 10.4524 47.8515 10.4524ZM47.8133 5.06869C46.8955 5.06869 46.3346 5.56623 46.1817 6.51029H49.3429C49.3429 5.64278 48.7438 5.06869 47.8133 5.06869Z" fill="black" fill-opacity="0.87"/>
<path d="M53.685 10.2865H52.1299V3.9843H53.5703L53.6977 4.80078C54.0929 4.1629 54.8577 3.79294 55.7117 3.79294C57.2924 3.79294 58.1082 4.77526 58.1082 6.40823V10.2865H56.553V6.77819C56.553 5.71932 56.0304 5.20902 55.2274 5.20902C54.2713 5.20902 53.685 5.87241 53.685 6.89301V10.2865Z" fill="black" fill-opacity="0.87"/>
<path d="M61.7776 10.2865H60.2224V5.28557H59.0115V3.9843H60.2224V2.01964H61.7776V3.9843H63.0013V5.28557H61.7776V10.2865Z" fill="black" fill-opacity="0.87"/>
</svg>
